<?xml version="1.0" encoding="UTF-8"?>
<svg width="100px" height="90px" viewBox="0 0 100 90" version="1.1" xmlns="http://www.w3.org/2000/svg" xmlns:xlink="http://www.w3.org/1999/xlink">
    <title>edit</title>
    <g id="Open-Maker" stroke="none" stroke-width="1" fill="none" fill-rule="evenodd">
        <g id="edit" fill="#1C2D34" fill-rule="nonzero">
            <path d="M69.84375,60.0520833 L75.3993056,54.4965278 C76.2673611,53.6284722 77.7777778,54.2361111 77.7777778,55.4861111 L77.7777778,80.7291667 C77.7777778,85.3298611 74.0451389,89.0625 69.4444444,89.0625 L8.33333333,89.0625 C3.73263889,89.0625 0,85.3298611 0,80.7291667 L0,19.6180556 C0,15.0173611 3.73263889,11.2847222 8.33333333,11.2847222 L55.8159722,11.2847222 C57.0486111,11.2847222 57.6736111,12.7777778 56.8055556,13.6631944 L51.25,19.21875 C50.9895833,19.4791667 50.6423611,19.6180556 50.2604167,19.6180556 L8.33333333,19.6180556 L8.33333333,80.7291667 L69.4444444,80.7291667 L69.4444444,61.0243056 C69.4444444,60.6597222 69.5833333,60.3125 69.84375,60.0520833 Z M97.03125,25.0173611 L51.4409722,70.6076389 L35.7465278,72.34375 C31.1979167,72.8472222 27.3263889,69.0104167 27.8298611,64.4270833 L29.5659722,48.7326389 L75.15625,3.14236111 C79.1319444,-0.833333333 85.5555556,-0.833333333 89.5138889,3.14236111 L97.0138889,10.6423611 C100.989583,14.6180556 100.989583,21.0590278 97.03125,25.0173611 L97.03125,25.0173611 Z M79.8784722,30.3819444 L69.7916667,20.2951389 L37.5347222,52.5694444 L36.2673611,63.90625 L47.6041667,62.6388889 L79.8784722,30.3819444 Z M91.1284722,16.5451389 L83.6284722,9.04513889 C82.9166667,8.33333333 81.7534722,8.33333333 81.0590278,9.04513889 L75.6944444,14.4097222 L85.78125,24.4965278 L91.1458333,19.1319444 C91.8402778,18.4027778 91.8402778,17.2569444 91.1284722,16.5451389 L91.1284722,16.5451389 Z" id="Shape"></path>
        </g>
    </g>
</svg>