<?xml version="1.0" encoding="UTF-8"?>
<svg width="100px" height="75px" viewBox="0 0 100 75" version="1.1" xmlns="http://www.w3.org/2000/svg" xmlns:xlink="http://www.w3.org/1999/xlink">
    <title>envelope</title>
    <g id="Open-Maker" stroke="none" stroke-width="1" fill="none" fill-rule="evenodd">
        <g id="envelope" fill="#002737" fill-rule="nonzero">
            <path d="M90.625,0 L9.375,0 C4.19726562,0 0,4.19726562 0,9.375 L0,65.625 C0,70.8027344 4.19726562,75 9.375,75 L90.625,75 C95.8027344,75 100,70.8027344 100,65.625 L100,9.375 C100,4.19726562 95.8027344,0 90.625,0 Z M90.625,9.375 L90.625,17.3447266 C86.2457031,20.9109375 79.2640625,26.45625 64.3384766,38.1435547 C61.0492188,40.7308594 54.5335938,46.9466797 50,46.8742188 C45.4671875,46.9474609 38.9494141,40.7298828 35.6615234,38.1435547 C20.7382812,26.4580078 13.7548828,20.9115234 9.375,17.3447266 L9.375,9.375 L90.625,9.375 Z M9.375,65.625 L9.375,29.3746094 C13.8503906,32.9392578 20.1970703,37.9414062 29.8707031,45.5164063 C34.1396484,48.8767578 41.615625,56.2949219 50,56.2498047 C58.3431641,56.2949219 65.7244141,48.984375 70.1275391,45.5179687 C79.8009766,37.9431641 86.1494141,32.9396484 90.625,29.3746094 L90.625,65.625 L9.375,65.625 Z" id="Shape"></path>
        </g>
    </g>
</svg>